<svg xmlns="http://www.w3.org/2000/svg" viewBox="0 0 700 460" role="img" aria-label="EduRecall scene: progress"><defs><linearGradient id="a" x1="0" y1="0" x2="1" y2="1"><stop stop-color="#E7F6EB"/><stop offset="1" stop-color="#B7E5C1"/></linearGradient><linearGradient id="b" x1="0" y1="0" x2="1" y2="1"><stop stop-color="#4AAA64"/><stop offset="1" stop-color="#245A37"/></linearGradient><filter id="s"><feDropShadow dx="0" dy="7" stdDeviation="7" flood-color="#173622" flood-opacity=".14"/></filter></defs><rect width="700" height="460" rx="48" fill="url(#a)"/><circle cx="590" cy="82" r="70" fill="#FFD66E" opacity=".22"/><circle cx="88" cy="92" r="32" fill="#72B9F2" opacity=".28"/><path d="M105 315h490" stroke="#173622" stroke-width="18" stroke-linecap="round"/><g><rect x="145" y="235" width="66" height="66" rx="18" fill="#fff" stroke="#72B9F2" stroke-width="6"/><circle cx="178" cy="268" r="7" fill="#72B9F2"/><rect x="233" y="235" width="66" height="66" rx="18" fill="#fff" stroke="#72B9F2" stroke-width="6"/><circle cx="266" cy="268" r="7" fill="#72B9F2"/><rect x="321" y="235" width="66" height="66" rx="18" fill="#fff" stroke="#72B9F2" stroke-width="6"/><circle cx="354" cy="268" r="7" fill="#72B9F2"/><rect x="409" y="235" width="66" height="66" rx="18" fill="#fff" stroke="#72B9F2" stroke-width="6"/><circle cx="442" cy="268" r="7" fill="#72B9F2"/><rect x="497" y="235" width="66" height="66" rx="18" fill="#FFD66E" stroke="#DF5E63" stroke-width="6"/><circle cx="530" cy="268" r="7" fill="#72B9F2"/></g><g transform="translate(450 180) scale(.52)"><ellipse cx="160" cy="279" rx="91" ry="18" fill="#173622" opacity=".12"/><path d="M160 55c-2-22 5-35 23-42m-23 42c-13-17-28-22-43-16" fill="none" stroke="#2A7041" stroke-width="8" stroke-linecap="round"/><path d="M183 13c20-4 29 10 18 25-15 0-22-9-18-25Zm-66 26c-2-16 12-24 27-14 1 15-10 21-27 14Z" fill="#67C080"/><rect x="83" y="56" width="154" height="116" rx="47" fill="url(#b)" filter="url(#s)"/><rect x="102" y="75" width="116" height="72" rx="28" fill="#E7F6EB"/><circle cx="136" cy="109" r="9" fill="#173622"/><circle cx="184" cy="109" r="9" fill="#173622"/><path d="M141 132q19 14 38 0" fill="none" stroke="#173622" stroke-width="5" stroke-linecap="round"/><rect x="104" y="158" width="112" height="102" rx="38" fill="#4AAA64" stroke="#245A37" stroke-width="6"/><circle cx="160" cy="204" r="21" fill="#E7F6EB"/><path d="M160 218v-22m0 4c-15 0-17-12-15-21 11 0 17 7 15 21Zm0 0c15 0 17-12 15-21-11 0-17 7-15 21Z" fill="#67C080" stroke="#2A7041" stroke-width="3"/> <path d="M110 155 72 105" stroke="#245A37" stroke-width="16" stroke-linecap="round"/><path d="M210 155 258 165" stroke="#245A37" stroke-width="16" stroke-linecap="round"/><path d="M131 254 116 282m58-28 15 28" stroke="#245A37" stroke-width="18" stroke-linecap="round"/></g><path d="M45 410c130-36 240 30 360 0s190-30 255 0" fill="none" stroke="#8ED49E" stroke-width="10" stroke-linecap="round" opacity=".7"/></svg>