<svg xmlns="http://www.w3.org/2000/svg" viewBox="0 0 300 260" role="img" aria-label="Decorative shape 2"><defs><linearGradient id="a" x1="0" y1="0" x2="1" y2="1"><stop stop-color="#E7F6EB"/><stop offset="1" stop-color="#B7E5C1"/></linearGradient><linearGradient id="b" x1="0" y1="0" x2="1" y2="1"><stop stop-color="#4AAA64"/><stop offset="1" stop-color="#245A37"/></linearGradient><filter id="s"><feDropShadow dx="0" dy="7" stdDeviation="7" flood-color="#173622" flood-opacity=".14"/></filter></defs><path d="M100 210c-15-90 10-155 70-190m-70 190c-58-45-80-100-55-164m55 164c45-45 89-50 132-23" fill="none" stroke="#AA8CE9" stroke-width="16" stroke-linecap="round"/><path d="M170 20c42 0 55 31 27 63-40-4-51-30-27-63ZM45 46c38 7 43 38 10 63-37-11-41-36-10-63Zm187 141c-10-37 17-55 53-36 5 36-18 52-53 36Z" fill="#AA8CE9" opacity=".7"/></svg>