<svg xmlns="http://www.w3.org/2000/svg" viewBox="0 0 560 340" role="img" aria-label="Course or module cover 6"><defs><linearGradient id="a" x1="0" y1="0" x2="1" y2="1"><stop stop-color="#E7F6EB"/><stop offset="1" stop-color="#B7E5C1"/></linearGradient><linearGradient id="b" x1="0" y1="0" x2="1" y2="1"><stop stop-color="#4AAA64"/><stop offset="1" stop-color="#245A37"/></linearGradient><filter id="s"><feDropShadow dx="0" dy="7" stdDeviation="7" flood-color="#173622" flood-opacity=".14"/></filter></defs><rect width="560" height="340" rx="34" fill="#173622"/><circle cx="470" cy="70" r="115" fill="#173622" opacity=".45"/><path d="M60 255c110-180 230 70 360-100" fill="none" stroke="#72B9F2" stroke-width="18" stroke-linecap="round" stroke-dasharray="20 18"/><g transform="translate(295 64) scale(.55)"><ellipse cx="160" cy="279" rx="91" ry="18" fill="#173622" opacity=".12"/><path d="M160 55c-2-22 5-35 23-42m-23 42c-13-17-28-22-43-16" fill="none" stroke="#2A7041" stroke-width="8" stroke-linecap="round"/><path d="M183 13c20-4 29 10 18 25-15 0-22-9-18-25Zm-66 26c-2-16 12-24 27-14 1 15-10 21-27 14Z" fill="#67C080"/><rect x="83" y="56" width="154" height="116" rx="47" fill="url(#b)" filter="url(#s)"/><rect x="102" y="75" width="116" height="72" rx="28" fill="#E7F6EB"/><circle cx="136" cy="109" r="9" fill="#173622"/><circle cx="184" cy="109" r="9" fill="#173622"/><path d="M141 132q19 14 38 0" fill="none" stroke="#173622" stroke-width="5" stroke-linecap="round"/><rect x="104" y="158" width="112" height="102" rx="38" fill="#4AAA64" stroke="#245A37" stroke-width="6"/><circle cx="160" cy="204" r="21" fill="#E7F6EB"/><path d="M160 218v-22m0 4c-15 0-17-12-15-21 11 0 17 7 15 21Zm0 0c15 0 17-12 15-21-11 0-17 7-15 21Z" fill="#67C080" stroke="#2A7041" stroke-width="3"/> <path d="M110 155 72 105" stroke="#245A37" stroke-width="16" stroke-linecap="round"/><path d="M210 155 244 205" stroke="#245A37" stroke-width="16" stroke-linecap="round"/><path d="M131 254 116 282m58-28 15 28" stroke="#245A37" stroke-width="18" stroke-linecap="round"/><rect x="228" y="183" width="70" height="52" rx="8" fill="#12251A"/><path d="m247 202-8 8 8 8m26-16 8 8-8 8" fill="none" stroke="#8ED49E" stroke-width="4"/></g><rect x="48" y="48" width="175" height="22" rx="11" fill="#fff" opacity=".9"/><rect x="48" y="86" width="120" height="14" rx="7" fill="#72B9F2"/><path d="m65 180 22 22 42-52" fill="none" stroke="#fff" stroke-width="14" stroke-linecap="round" stroke-linejoin="round"/></svg>