<svg xmlns="http://www.w3.org/2000/svg" viewBox="0 0 160 160" role="img" aria-label="Synthetic learner avatar 17"><defs><linearGradient id="a" x1="0" y1="0" x2="1" y2="1"><stop stop-color="#E7F6EB"/><stop offset="1" stop-color="#B7E5C1"/></linearGradient><linearGradient id="b" x1="0" y1="0" x2="1" y2="1"><stop stop-color="#4AAA64"/><stop offset="1" stop-color="#245A37"/></linearGradient><filter id="s"><feDropShadow dx="0" dy="7" stdDeviation="7" flood-color="#173622" flood-opacity=".14"/></filter></defs><rect width="160" height="160" rx="80" fill="url(#a)"/><circle cx="80" cy="72" r="42" fill="#D99B73"/><path d="M38 66c2-47 77-63 88-7-25-12-49-8-70 8Z" fill="#49342D"/><circle cx="66" cy="77" r="4" fill="#173622"/><circle cx="95" cy="77" r="4" fill="#173622"/><path d="M69 95q12 9 24 0" fill="none" stroke="#8D5A3C" stroke-width="4" stroke-linecap="round"/><path d="M20 160c5-55 115-55 120 0" fill="#72B9F2"/><path d="M78 18c-1-15 5-20 13-25m-13 25c-8-10-15-12-22-9" fill="none" stroke="#2A7041" stroke-width="5" stroke-linecap="round"/><path d="M91-7c12-2 17 7 11 16-9 0-14-6-11-16Z" fill="#67C080"/></svg>